<svg width="1148" height="247" viewBox="0 0 1148 247" fill="none" xmlns="http://www.w3.org/2000/svg">
<path d="M51.4711 196.347C10.5611 156.255 10.5611 90.4634 51.4711 50.3716M81.8914 166.535C57.765 142.891 57.765 103.827 81.8914 79.1555" stroke="#29374C" stroke-width="20.9354" stroke-linecap="round" stroke-linejoin="round"/>
<path d="M125.948 143.919C137.535 143.919 146.928 134.714 146.928 123.359C146.928 112.004 137.535 102.799 125.948 102.799C114.362 102.799 104.969 112.004 104.969 123.359C104.969 134.714 114.362 143.919 125.948 143.919Z" stroke="#29374C" stroke-width="20.9354" stroke-linecap="round" stroke-linejoin="round"/>
<path d="M170.006 80.1835C194.132 103.827 194.132 142.891 170.006 167.563M200.426 50.3716C241.336 90.4634 241.336 155.227 200.426 195.319" stroke="#29374C" stroke-width="20.9354" stroke-linecap="round" stroke-linejoin="round"/>
<g clip-path="url(#clip0_18_21)">
<ellipse cx="126.6" cy="122.708" rx="30.8215" ry="30.205" fill="#29374D"/>
<path fill-rule="evenodd" clip-rule="evenodd" d="M124.599 99.6552C121.72 99.8245 118.877 100.556 116.001 101.867C115.623 102.039 114.228 102.789 113.808 103.046C110.899 104.823 108.204 107.434 106.331 110.288C105.65 111.326 104.766 113.004 104.396 113.96C104.134 114.637 104.134 114.638 104.224 114.897C104.342 115.235 104.583 115.409 104.878 115.37C105.174 115.33 106.723 114.587 108.96 113.41C109.36 113.2 110.991 112.466 111.059 112.466C111.07 112.466 111.246 112.392 111.45 112.302C112.262 111.94 113.971 111.399 115.066 111.157C117.338 110.655 119.141 110.7 120.68 111.297C122.544 112.02 123.717 113.412 124.808 116.198C124.96 116.585 125.135 117.03 125.196 117.187C125.258 117.344 125.401 117.718 125.514 118.017C126.929 121.778 127.301 122.646 127.761 123.258C128.172 123.806 128.451 123.967 128.985 123.967C129.717 123.967 130.164 123.562 130.676 122.434C131.014 121.691 131.115 121.171 131.08 120.356C131.05 119.662 130.976 119.507 130.294 118.707C129.861 118.2 129.655 117.772 129.596 117.257C129.492 116.357 130.429 115.109 131.723 114.421C132.402 114.06 132.936 113.929 133.569 113.968C134.419 114.02 134.978 114.328 135.897 115.251C136.437 115.793 137.099 116.352 137.744 116.809C137.978 116.975 138.169 117.13 138.169 117.153C138.169 117.177 138.096 117.232 138.008 117.277C137.003 117.781 136.347 118.33 136.203 118.789C136.075 119.196 136.037 120.115 136.118 120.845C136.192 121.511 136.387 122.178 137.049 124.025C138.033 126.767 138.181 129.282 137.484 131.377C136.384 134.684 132.978 137.148 128.313 138.012C125.734 138.49 123.338 138.299 120.182 137.365C119.137 137.056 117.349 136.425 116.382 136.023C115.651 135.72 113.604 134.72 112.901 134.323C112.499 134.095 112.052 133.844 111.907 133.765C110.482 132.985 107.87 131.067 105.854 129.32C105.596 129.097 105.215 128.773 105.005 128.601C104.796 128.428 104.59 128.255 104.547 128.215C104.3 127.986 104.068 127.858 103.901 127.858C103.657 127.858 103.426 128.078 103.426 128.31C103.426 128.712 103.703 129.624 104.322 131.263C104.591 131.975 105.451 133.659 106.016 134.582C107.555 137.091 109.697 139.4 112.141 141.184C114.51 142.913 117.541 144.351 120.154 144.986C121.513 145.317 121.802 145.375 122.757 145.509C127.241 146.138 131.732 145.546 135.785 143.791C137.372 143.104 138.608 142.393 140.508 141.075C140.793 140.877 141.325 140.442 141.912 139.928C142.185 139.689 142.471 139.443 142.547 139.383C142.935 139.075 144.643 137.157 145.247 136.351C145.841 135.558 146.415 134.718 146.415 134.642C146.415 134.63 146.544 134.416 146.702 134.167C147.324 133.186 148.083 131.547 148.578 130.118C149.026 128.823 149.345 127.551 149.582 126.105C149.769 124.971 149.769 124.964 149.772 122.737C149.775 120.582 149.77 120.47 149.613 119.447C149.366 117.837 149.119 116.816 148.616 115.327C147.161 111.014 144.163 106.968 140.362 104.188C138.928 103.14 137.798 102.483 136.093 101.71C132.506 100.083 128.75 99.4112 124.599 99.6552ZM133.571 115.653C133.406 115.684 133.11 115.999 133.034 116.225C132.902 116.613 133.221 117.066 133.679 117.138C133.94 117.18 134.333 116.988 134.453 116.76C134.655 116.378 134.507 115.917 134.121 115.722C133.908 115.616 133.82 115.605 133.571 115.653Z" fill="#FFD542"/>
</g>
<path d="M372.546 82.0149H356.097C355.796 79.8868 355.183 77.9966 354.257 76.3442C353.33 74.6667 352.141 73.2396 350.689 72.0629C349.237 70.8862 347.559 69.9849 345.657 69.359C343.779 68.7331 341.739 68.4201 339.535 68.4201C335.555 68.4201 332.087 69.4091 329.133 71.387C326.178 73.3398 323.888 76.1939 322.26 79.9494C320.633 83.6798 319.819 88.2114 319.819 93.5441C319.819 99.0271 320.633 103.634 322.26 107.364C323.913 111.095 326.216 113.911 329.17 115.814C332.125 117.717 335.542 118.668 339.423 118.668C341.601 118.668 343.616 118.38 345.469 117.804C347.347 117.229 349.012 116.39 350.464 115.288C351.916 114.162 353.118 112.797 354.069 111.195C355.045 109.592 355.721 107.765 356.097 105.712L372.546 105.787C372.12 109.317 371.056 112.722 369.354 116.002C367.676 119.256 365.41 122.173 362.556 124.752C359.727 127.306 356.347 129.334 352.417 130.836C348.511 132.313 344.092 133.052 339.16 133.052C332.3 133.052 326.166 131.499 320.758 128.395C315.375 125.29 311.119 120.796 307.99 114.913C304.885 109.029 303.333 101.906 303.333 93.5441C303.333 85.157 304.91 78.0216 308.065 72.138C311.219 66.2545 315.5 61.773 320.908 58.6935C326.316 55.589 332.4 54.0367 339.16 54.0367C343.616 54.0367 347.747 54.6627 351.553 55.9145C355.383 57.1663 358.776 58.9939 361.73 61.3974C364.684 63.7759 367.088 66.6926 368.941 70.1477C370.818 73.6027 372.02 77.5584 372.546 82.0149ZM400.355 133.089C396.675 133.089 393.395 132.451 390.516 131.174C387.636 129.872 385.358 127.957 383.681 125.428C382.028 122.874 381.202 119.695 381.202 115.889C381.202 112.684 381.79 109.993 382.967 107.815C384.144 105.637 385.746 103.884 387.774 102.557C389.802 101.23 392.105 100.229 394.684 99.5529C397.288 98.8769 400.017 98.4012 402.871 98.1258C406.226 97.7753 408.93 97.4498 410.983 97.1494C413.036 96.8239 414.526 96.3482 415.452 95.7223C416.378 95.0964 416.841 94.17 416.841 92.9433V92.7179C416.841 90.3395 416.09 88.4993 414.588 87.1974C413.111 85.8955 411.008 85.2446 408.279 85.2446C405.4 85.2446 403.109 85.883 401.406 87.1599C399.704 88.4117 398.577 89.989 398.027 91.8917L383.23 90.69C383.981 87.1849 385.458 84.1555 387.661 81.6018C389.865 79.023 392.706 77.0452 396.186 75.6682C399.691 74.2661 403.747 73.5651 408.354 73.5651C411.559 73.5651 414.626 73.9407 417.555 74.6918C420.509 75.4428 423.126 76.607 425.404 78.1843C427.707 79.7616 429.522 81.7896 430.849 84.2682C432.176 86.7217 432.84 89.6635 432.84 93.0935V132H417.668V124.001H417.217C416.291 125.803 415.051 127.393 413.499 128.77C411.947 130.122 410.082 131.186 407.903 131.962C405.725 132.714 403.209 133.089 400.355 133.089ZM404.937 122.048C407.29 122.048 409.368 121.585 411.171 120.659C412.973 119.707 414.388 118.43 415.414 116.828C416.441 115.226 416.954 113.41 416.954 111.383V105.261C416.453 105.587 415.765 105.887 414.889 106.162C414.037 106.413 413.073 106.651 411.997 106.876C410.92 107.076 409.844 107.264 408.767 107.439C407.691 107.59 406.714 107.727 405.838 107.852C403.96 108.128 402.32 108.566 400.918 109.167C399.516 109.768 398.427 110.581 397.651 111.608C396.875 112.609 396.487 113.861 396.487 115.363C396.487 117.541 397.275 119.206 398.853 120.358C400.455 121.485 402.483 122.048 404.937 122.048ZM493.246 90.7651L478.6 91.6664C478.349 90.4146 477.811 89.288 476.985 88.2865C476.159 87.26 475.07 86.4463 473.718 85.8455C472.391 85.2195 470.801 84.9066 468.948 84.9066C466.47 84.9066 464.379 85.4324 462.677 86.4839C460.974 87.5104 460.123 88.8874 460.123 90.6149C460.123 91.9919 460.674 93.1561 461.775 94.1075C462.877 95.0588 464.767 95.8224 467.446 96.3983L477.886 98.5013C483.494 99.653 487.676 101.506 490.43 104.059C493.184 106.613 494.561 109.968 494.561 114.124C494.561 117.905 493.446 121.222 491.218 124.076C489.015 126.93 485.986 129.158 482.13 130.761C478.299 132.338 473.88 133.127 468.873 133.127C461.237 133.127 455.153 131.537 450.622 128.357C446.115 125.153 443.474 120.796 442.698 115.288L458.433 114.462C458.909 116.79 460.06 118.568 461.888 119.795C463.716 120.997 466.057 121.597 468.911 121.597C471.715 121.597 473.968 121.059 475.671 119.983C477.398 118.881 478.274 117.466 478.299 115.739C478.274 114.287 477.661 113.098 476.459 112.171C475.257 111.22 473.405 110.494 470.901 109.993L460.912 108.003C455.278 106.876 451.085 104.923 448.331 102.144C445.602 99.3651 444.237 95.8224 444.237 91.5162C444.237 87.8108 445.239 84.6187 447.242 81.9398C449.27 79.2609 452.111 77.1954 455.767 75.7433C459.447 74.2912 463.753 73.5651 468.685 73.5651C475.971 73.5651 481.704 75.1049 485.885 78.1843C490.092 81.2638 492.545 85.4574 493.246 90.7651ZM521.083 133.089C517.403 133.089 514.123 132.451 511.244 131.174C508.365 129.872 506.087 127.957 504.409 125.428C502.757 122.874 501.931 119.695 501.931 115.889C501.931 112.684 502.519 109.993 503.696 107.815C504.872 105.637 506.475 103.884 508.503 102.557C510.531 101.23 512.834 100.229 515.413 99.5529C518.016 98.8769 520.745 98.4012 523.6 98.1258C526.954 97.7753 529.658 97.4498 531.711 97.1494C533.764 96.8239 535.254 96.3482 536.18 95.7223C537.107 95.0964 537.57 94.17 537.57 92.9433V92.7179C537.57 90.3395 536.819 88.4993 535.317 87.1974C533.839 85.8955 531.736 85.2446 529.007 85.2446C526.128 85.2446 523.837 85.883 522.135 87.1599C520.432 88.4117 519.306 89.989 518.755 91.8917L503.959 90.69C504.71 87.1849 506.187 84.1555 508.39 81.6018C510.593 79.023 513.435 77.0452 516.915 75.6682C520.42 74.2661 524.476 73.5651 529.083 73.5651C532.287 73.5651 535.354 73.9407 538.283 74.6918C541.238 75.4428 543.854 76.607 546.132 78.1843C548.436 79.7616 550.251 81.7896 551.578 84.2682C552.905 86.7217 553.568 89.6635 553.568 93.0935V132H538.396V124.001H537.945C537.019 125.803 535.78 127.393 534.228 128.77C532.675 130.122 530.81 131.186 528.632 131.962C526.454 132.714 523.938 133.089 521.083 133.089ZM525.665 122.048C528.018 122.048 530.097 121.585 531.899 120.659C533.702 119.707 535.116 118.43 536.143 116.828C537.169 115.226 537.683 113.41 537.683 111.383V105.261C537.182 105.587 536.493 105.887 535.617 106.162C534.766 106.413 533.802 106.651 532.725 106.876C531.649 107.076 530.572 107.264 529.496 107.439C528.419 107.59 527.443 107.727 526.566 107.852C524.689 108.128 523.049 108.566 521.647 109.167C520.245 109.768 519.156 110.581 518.379 111.608C517.603 112.609 517.215 113.861 517.215 115.363C517.215 117.541 518.004 119.206 519.581 120.358C521.184 121.485 523.212 122.048 525.665 122.048ZM611.712 132.939C607.331 132.939 603.362 131.812 599.807 129.559C596.277 127.281 593.473 123.938 591.395 119.532C589.342 115.1 588.315 109.668 588.315 103.233C588.315 96.6236 589.379 91.1281 591.508 86.7468C593.636 82.3404 596.465 79.0481 599.995 76.8699C603.55 74.6667 607.443 73.5651 611.674 73.5651C614.904 73.5651 617.595 74.1159 619.749 75.2175C621.927 76.2941 623.679 77.646 625.006 79.2734C626.358 80.8757 627.385 82.453 628.086 84.0053H628.574V55.0883H644.535V132H628.762V122.762H628.086C627.335 124.364 626.271 125.954 624.894 127.531C623.542 129.083 621.777 130.373 619.598 131.399C617.445 132.426 614.816 132.939 611.712 132.939ZM616.782 120.208C619.361 120.208 621.539 119.507 623.316 118.105C625.119 116.678 626.496 114.687 627.447 112.134C628.424 109.58 628.912 106.588 628.912 103.158C628.912 99.7281 628.436 96.7488 627.485 94.2201C626.533 91.6914 625.156 89.7386 623.354 88.3616C621.551 86.9846 619.361 86.2961 616.782 86.2961C614.153 86.2961 611.937 87.0096 610.135 88.4367C608.332 89.8638 606.968 91.8417 606.041 94.3703C605.115 96.899 604.652 99.8283 604.652 103.158C604.652 106.513 605.115 109.48 606.041 112.059C606.993 114.612 608.357 116.615 610.135 118.067C611.937 119.494 614.153 120.208 616.782 120.208ZM683.976 133.127C678.043 133.127 672.935 131.925 668.654 129.521C664.398 127.093 661.118 123.663 658.815 119.231C656.511 114.775 655.36 109.505 655.36 103.421C655.36 97.4874 656.511 92.2798 658.815 87.7983C661.118 83.3168 664.36 79.8242 668.541 77.3206C672.747 74.8169 677.68 73.5651 683.338 73.5651C687.143 73.5651 690.686 74.1785 693.966 75.4053C697.271 76.607 700.15 78.4222 702.603 80.8507C705.082 83.2792 707.01 86.3337 708.387 90.014C709.764 93.6693 710.452 97.9505 710.452 102.858V107.252H661.744V97.3371H695.393C695.393 95.0338 694.892 92.9933 693.891 91.2158C692.889 89.4382 691.5 88.0487 689.722 87.0472C687.97 86.0207 685.929 85.5075 683.601 85.5075C681.172 85.5075 679.019 86.0708 677.141 87.1974C675.289 88.299 673.837 89.7887 672.785 91.6664C671.734 93.5191 671.195 95.5846 671.17 97.8629V107.289C671.17 110.143 671.696 112.609 672.747 114.687C673.824 116.765 675.339 118.368 677.292 119.494C679.244 120.621 681.56 121.184 684.239 121.184C686.017 121.184 687.644 120.934 689.121 120.433C690.598 119.932 691.863 119.181 692.914 118.18C693.966 117.178 694.767 115.952 695.318 114.5L710.114 115.476C709.363 119.031 707.823 122.136 705.495 124.79C703.192 127.418 700.212 129.471 696.557 130.948C692.927 132.401 688.733 133.127 683.976 133.127ZM816.347 93.5441C816.347 101.931 814.757 109.067 811.577 114.95C808.423 120.834 804.116 125.328 798.658 128.432C793.226 131.512 787.117 133.052 780.332 133.052C773.497 133.052 767.363 131.499 761.93 128.395C756.497 125.29 752.204 120.796 749.049 114.913C745.894 109.029 744.317 101.906 744.317 93.5441C744.317 85.157 745.894 78.0216 749.049 72.138C752.204 66.2545 756.497 61.773 761.93 58.6935C767.363 55.589 773.497 54.0367 780.332 54.0367C787.117 54.0367 793.226 55.589 798.658 58.6935C804.116 61.773 808.423 66.2545 811.577 72.138C814.757 78.0216 816.347 85.157 816.347 93.5441ZM799.86 93.5441C799.86 88.1112 799.047 83.5296 797.419 79.7992C795.817 76.0688 793.551 73.2396 790.622 71.3118C787.693 69.384 784.263 68.4201 780.332 68.4201C776.401 68.4201 772.971 69.384 770.042 71.3118C767.113 73.2396 764.834 76.0688 763.207 79.7992C761.605 83.5296 760.804 88.1112 760.804 93.5441C760.804 98.977 761.605 103.559 763.207 107.289C764.834 111.02 767.113 113.849 770.042 115.776C772.971 117.704 776.401 118.668 780.332 118.668C784.263 118.668 787.693 117.704 790.622 115.776C793.551 113.849 795.817 111.02 797.419 107.289C799.047 103.559 799.86 98.977 799.86 93.5441ZM828.092 132V74.3162H843.602V84.3808H844.203C845.254 80.8006 847.019 78.0967 849.498 76.269C851.977 74.4164 854.831 73.49 858.06 73.49C858.862 73.49 859.725 73.5401 860.652 73.6402C861.578 73.7404 862.392 73.8781 863.093 74.0533V88.2489C862.342 88.0236 861.303 87.8233 859.976 87.6481C858.649 87.4728 857.434 87.3852 856.333 87.3852C853.979 87.3852 851.876 87.8984 850.024 88.9249C848.196 89.9264 846.744 91.3284 845.667 93.131C844.616 94.9337 844.09 97.0117 844.09 99.3651V132H828.092ZM886.161 133.089C882.48 133.089 879.201 132.451 876.321 131.174C873.442 129.872 871.164 127.957 869.486 125.428C867.834 122.874 867.008 119.695 867.008 115.889C867.008 112.684 867.596 109.993 868.773 107.815C869.95 105.637 871.552 103.884 873.58 102.557C875.608 101.23 877.911 100.229 880.49 99.5529C883.094 98.8769 885.823 98.4012 888.677 98.1258C892.032 97.7753 894.736 97.4498 896.789 97.1494C898.842 96.8239 900.331 96.3482 901.258 95.7223C902.184 95.0964 902.647 94.17 902.647 92.9433V92.7179C902.647 90.3395 901.896 88.4993 900.394 87.1974C898.917 85.8955 896.814 85.2446 894.085 85.2446C891.205 85.2446 888.915 85.883 887.212 87.1599C885.51 88.4117 884.383 89.989 883.832 91.8917L869.036 90.69C869.787 87.1849 871.264 84.1555 873.467 81.6018C875.67 79.023 878.512 77.0452 881.992 75.6682C885.497 74.2661 889.553 73.5651 894.16 73.5651C897.364 73.5651 900.431 73.9407 903.361 74.6918C906.315 75.4428 908.931 76.607 911.21 78.1843C913.513 79.7616 915.328 81.7896 916.655 84.2682C917.982 86.7217 918.645 89.6635 918.645 93.0935V132H903.473V124.001H903.023C902.096 125.803 900.857 127.393 899.305 128.77C897.752 130.122 895.887 131.186 893.709 131.962C891.531 132.714 889.015 133.089 886.161 133.089ZM890.742 122.048C893.096 122.048 895.174 121.585 896.976 120.659C898.779 119.707 900.194 118.43 901.22 116.828C902.246 115.226 902.76 113.41 902.76 111.383V105.261C902.259 105.587 901.571 105.887 900.694 106.162C899.843 106.413 898.879 106.651 897.803 106.876C896.726 107.076 895.649 107.264 894.573 107.439C893.496 107.59 892.52 107.727 891.644 107.852C889.766 108.128 888.126 108.566 886.724 109.167C885.322 109.768 884.233 110.581 883.457 111.608C882.681 112.609 882.293 113.861 882.293 115.363C882.293 117.541 883.081 119.206 884.658 120.358C886.261 121.485 888.289 122.048 890.742 122.048ZM957.12 133.127C951.211 133.127 946.129 131.875 941.873 129.371C937.642 126.843 934.387 123.337 932.109 118.856C929.855 114.374 928.729 109.217 928.729 103.383C928.729 97.4748 929.868 92.2923 932.146 87.8358C934.449 83.3543 937.717 79.8618 941.948 77.3581C946.179 74.8295 951.211 73.5651 957.045 73.5651C962.077 73.5651 966.484 74.4789 970.264 76.3066C974.045 78.1343 977.036 80.7005 979.24 84.0053C981.443 87.3101 982.657 91.1907 982.882 95.6472H967.785C967.36 92.768 966.233 90.4521 964.406 88.6996C962.603 86.922 960.237 86.0332 957.308 86.0332C954.829 86.0332 952.663 86.7092 950.811 88.0612C948.983 89.3881 947.556 91.3284 946.53 93.8821C945.503 96.4358 944.99 99.5278 944.99 103.158C944.99 106.838 945.491 109.968 946.492 112.547C947.518 115.125 948.958 117.091 950.811 118.443C952.663 119.795 954.829 120.471 957.308 120.471C959.135 120.471 960.775 120.095 962.227 119.344C963.704 118.593 964.919 117.504 965.87 116.077C966.847 114.625 967.485 112.885 967.785 110.857H982.882C982.632 115.263 981.43 119.144 979.277 122.499C977.149 125.829 974.207 128.432 970.452 130.31C966.696 132.188 962.252 133.127 957.12 133.127ZM993.125 132V74.3162H1009.12V132H993.125ZM1001.16 66.8804C998.784 66.8804 996.743 66.0918 995.041 64.5145C993.363 62.9121 992.524 60.9969 992.524 58.7686C992.524 56.5654 993.363 54.6752 995.041 53.0979C996.743 51.4956 998.784 50.6944 1001.16 50.6944C1003.54 50.6944 1005.57 51.4956 1007.25 53.0979C1008.95 54.6752 1009.8 56.5654 1009.8 58.7686C1009.8 60.9969 1008.95 62.9121 1007.25 64.5145C1005.57 66.0918 1003.54 66.8804 1001.16 66.8804ZM1048 133.127C1042.17 133.127 1037.12 131.887 1032.87 129.409C1028.64 126.905 1025.37 123.425 1023.07 118.969C1020.76 114.487 1019.61 109.292 1019.61 103.383C1019.61 97.4248 1020.76 92.2172 1023.07 87.7607C1025.37 83.2792 1028.64 79.7992 1032.87 77.3206C1037.12 74.8169 1042.17 73.5651 1048 73.5651C1053.84 73.5651 1058.87 74.8169 1063.1 77.3206C1067.36 79.7992 1070.63 83.2792 1072.94 87.7607C1075.24 92.2172 1076.39 97.4248 1076.39 103.383C1076.39 109.292 1075.24 114.487 1072.94 118.969C1070.63 123.425 1067.36 126.905 1063.1 129.409C1058.87 131.887 1053.84 133.127 1048 133.127ZM1048.08 120.734C1050.73 120.734 1052.95 119.983 1054.72 118.48C1056.5 116.953 1057.84 114.875 1058.74 112.246C1059.67 109.617 1060.13 106.626 1060.13 103.271C1060.13 99.9159 1059.67 96.924 1058.74 94.2952C1057.84 91.6664 1056.5 89.5884 1054.72 88.0612C1052.95 86.534 1050.73 85.7703 1048.08 85.7703C1045.4 85.7703 1043.14 86.534 1041.32 88.0612C1039.51 89.5884 1038.15 91.6664 1037.22 94.2952C1036.32 96.924 1035.87 99.9159 1035.87 103.271C1035.87 106.626 1036.32 109.617 1037.22 112.246C1038.15 114.875 1039.51 116.953 1041.32 118.48C1043.14 119.983 1045.4 120.734 1048.08 120.734ZM1042.26 66.8804L1050.22 49.7931H1065.01L1053.56 66.8804H1042.26ZM1102.79 98.6516V132H1086.8V74.3162H1102.04V84.4935H1102.72C1104 81.1386 1106.14 78.4848 1109.14 76.5319C1112.15 74.5541 1115.79 73.5651 1120.07 73.5651C1124.07 73.5651 1127.57 74.4414 1130.55 76.1939C1133.53 77.9465 1135.84 80.4501 1137.49 83.7048C1139.15 86.9345 1139.97 90.7901 1139.97 95.2716V132H1123.97V98.1258C1124 94.5957 1123.1 91.8417 1121.27 89.8638C1119.44 87.8609 1116.93 86.8594 1113.72 86.8594C1111.57 86.8594 1109.67 87.3226 1108.01 88.2489C1106.39 89.1753 1105.11 90.5273 1104.18 92.3048C1103.28 94.0574 1102.82 96.173 1102.79 98.6516Z" fill="black"/>
<path d="M307.438 205V165.447H323.042C326.03 165.447 328.579 165.982 330.69 167.05C332.815 168.106 334.431 169.606 335.538 171.55C336.658 173.481 337.218 175.754 337.218 178.368C337.218 180.994 336.652 183.254 335.519 185.146C334.386 187.026 332.744 188.468 330.594 189.472C328.457 190.477 325.869 190.979 322.83 190.979H312.382V184.258H321.478C323.075 184.258 324.401 184.039 325.457 183.601C326.512 183.164 327.298 182.507 327.813 181.631C328.341 180.756 328.605 179.668 328.605 178.368C328.605 177.054 328.341 175.947 327.813 175.046C327.298 174.144 326.506 173.462 325.437 172.999C324.382 172.522 323.049 172.284 321.44 172.284H315.8V205H307.438ZM328.798 187L338.628 205H329.396L319.779 187H328.798ZM351.432 205.56C349.54 205.56 347.853 205.232 346.372 204.575C344.892 203.906 343.72 202.921 342.857 201.62C342.008 200.307 341.583 198.672 341.583 196.715C341.583 195.067 341.885 193.683 342.491 192.563C343.096 191.442 343.92 190.541 344.963 189.859C346.005 189.176 347.19 188.661 348.516 188.314C349.855 187.966 351.259 187.721 352.726 187.58C354.452 187.4 355.842 187.232 356.898 187.078C357.954 186.91 358.72 186.666 359.196 186.344C359.673 186.022 359.911 185.546 359.911 184.915V184.799C359.911 183.576 359.524 182.629 358.752 181.96C357.992 181.29 356.911 180.955 355.507 180.955C354.027 180.955 352.849 181.284 351.973 181.94C351.098 182.584 350.518 183.395 350.235 184.374L342.626 183.756C343.012 181.953 343.772 180.395 344.905 179.082C346.038 177.756 347.499 176.739 349.289 176.031C351.091 175.31 353.177 174.949 355.546 174.949C357.194 174.949 358.771 175.142 360.278 175.529C361.797 175.915 363.142 176.514 364.314 177.325C365.499 178.136 366.432 179.179 367.114 180.453C367.797 181.715 368.138 183.228 368.138 184.992V205H360.336V200.886H360.104C359.627 201.813 358.99 202.631 358.192 203.339C357.394 204.034 356.434 204.582 355.314 204.981C354.194 205.367 352.9 205.56 351.432 205.56ZM353.789 199.882C354.999 199.882 356.067 199.644 356.995 199.168C357.922 198.678 358.649 198.022 359.177 197.198C359.705 196.374 359.969 195.44 359.969 194.397V191.249C359.711 191.417 359.357 191.571 358.906 191.713C358.469 191.842 357.973 191.964 357.419 192.08C356.866 192.183 356.312 192.279 355.758 192.369C355.205 192.447 354.703 192.517 354.252 192.582C353.286 192.723 352.443 192.949 351.722 193.258C351.001 193.567 350.441 193.985 350.042 194.513C349.643 195.028 349.443 195.672 349.443 196.444C349.443 197.565 349.849 198.421 350.66 199.013C351.484 199.592 352.527 199.882 353.789 199.882ZM385.452 205.483C383.199 205.483 381.158 204.903 379.33 203.745C377.514 202.573 376.072 200.854 375.004 198.588C373.948 196.309 373.42 193.515 373.42 190.206C373.42 186.807 373.967 183.981 375.062 181.728C376.156 179.462 377.611 177.769 379.426 176.649C381.255 175.516 383.257 174.949 385.433 174.949C387.094 174.949 388.478 175.232 389.585 175.799C390.705 176.353 391.606 177.048 392.289 177.885C392.984 178.709 393.512 179.52 393.872 180.318H394.123V165.447H402.331V205H394.22V200.249H393.872C393.486 201.073 392.939 201.891 392.231 202.702C391.536 203.5 390.628 204.163 389.508 204.691C388.4 205.219 387.049 205.483 385.452 205.483ZM388.059 198.936C389.385 198.936 390.506 198.575 391.42 197.854C392.347 197.12 393.055 196.097 393.544 194.783C394.046 193.47 394.297 191.932 394.297 190.168C394.297 188.404 394.053 186.872 393.563 185.571C393.074 184.271 392.366 183.267 391.439 182.558C390.512 181.85 389.385 181.496 388.059 181.496C386.707 181.496 385.568 181.863 384.641 182.597C383.714 183.331 383.012 184.348 382.536 185.649C382.059 186.949 381.821 188.455 381.821 190.168C381.821 191.893 382.059 193.419 382.536 194.745C383.025 196.058 383.727 197.088 384.641 197.835C385.568 198.569 386.707 198.936 388.059 198.936ZM409.096 205V175.335H417.323V205H409.096ZM413.229 171.511C412.006 171.511 410.956 171.106 410.081 170.295C409.218 169.471 408.787 168.486 408.787 167.34C408.787 166.207 409.218 165.235 410.081 164.424C410.956 163.6 412.006 163.188 413.229 163.188C414.452 163.188 415.495 163.6 416.357 164.424C417.233 165.235 417.671 166.207 417.671 167.34C417.671 168.486 417.233 169.471 416.357 170.295C415.495 171.106 414.452 171.511 413.229 171.511ZM437.317 205.579C434.317 205.579 431.722 204.942 429.534 203.667C427.358 202.38 425.677 200.59 424.493 198.298C423.308 195.994 422.716 193.322 422.716 190.284C422.716 187.219 423.308 184.541 424.493 182.249C425.677 179.945 427.358 178.155 429.534 176.88C431.722 175.593 434.317 174.949 437.317 174.949C440.317 174.949 442.905 175.593 445.08 176.88C447.269 178.155 448.956 179.945 450.14 182.249C451.325 184.541 451.917 187.219 451.917 190.284C451.917 193.322 451.325 195.994 450.14 198.298C448.956 200.59 447.269 202.38 445.08 203.667C442.905 204.942 440.317 205.579 437.317 205.579ZM437.355 199.206C438.72 199.206 439.86 198.82 440.774 198.047C441.688 197.262 442.377 196.193 442.84 194.841C443.317 193.49 443.555 191.951 443.555 190.226C443.555 188.5 443.317 186.962 442.84 185.61C442.377 184.258 441.688 183.189 440.774 182.404C439.86 181.619 438.72 181.226 437.355 181.226C435.978 181.226 434.819 181.619 433.879 182.404C432.952 183.189 432.25 184.258 431.774 185.61C431.31 186.962 431.079 188.5 431.079 190.226C431.079 191.951 431.31 193.49 431.774 194.841C432.25 196.193 432.952 197.262 433.879 198.047C434.819 198.82 435.978 199.206 437.355 199.206ZM506.355 185.224C506.355 189.537 505.538 193.206 503.903 196.232C502.28 199.258 500.066 201.569 497.259 203.165C494.465 204.749 491.324 205.541 487.834 205.541C484.319 205.541 481.165 204.742 478.371 203.146C475.577 201.549 473.369 199.238 471.747 196.213C470.124 193.187 469.313 189.524 469.313 185.224C469.313 180.91 470.124 177.241 471.747 174.215C473.369 171.19 475.577 168.885 478.371 167.301C481.165 165.705 484.319 164.906 487.834 164.906C491.324 164.906 494.465 165.705 497.259 167.301C500.066 168.885 502.28 171.19 503.903 174.215C505.538 177.241 506.355 180.91 506.355 185.224ZM497.877 185.224C497.877 182.43 497.459 180.074 496.622 178.155C495.798 176.237 494.632 174.782 493.126 173.79C491.62 172.799 489.856 172.303 487.834 172.303C485.813 172.303 484.049 172.799 482.543 173.79C481.036 174.782 479.865 176.237 479.028 178.155C478.204 180.074 477.792 182.43 477.792 185.224C477.792 188.018 478.204 190.374 479.028 192.292C479.865 194.211 481.036 195.665 482.543 196.657C484.049 197.648 485.813 198.144 487.834 198.144C489.856 198.144 491.62 197.648 493.126 196.657C494.632 195.665 495.798 194.211 496.622 192.292C497.459 190.374 497.877 188.018 497.877 185.224ZM520.623 187.85V205H512.395V175.335H520.237V180.569H520.584C521.241 178.844 522.342 177.479 523.887 176.475C525.432 175.458 527.305 174.949 529.507 174.949C531.567 174.949 533.363 175.4 534.895 176.301C536.427 177.202 537.618 178.49 538.468 180.164C539.318 181.825 539.743 183.807 539.743 186.112V205H531.515V187.58C531.528 185.764 531.065 184.348 530.125 183.331C529.185 182.301 527.891 181.786 526.243 181.786C525.136 181.786 524.157 182.024 523.307 182.501C522.47 182.977 521.814 183.672 521.337 184.586C520.874 185.488 520.636 186.576 520.623 187.85ZM554.454 165.447V205H546.227V165.447H554.454ZM561.045 205V175.335H569.272V205H561.045ZM565.178 171.511C563.954 171.511 562.905 171.106 562.03 170.295C561.167 169.471 560.736 168.486 560.736 167.34C560.736 166.207 561.167 165.235 562.03 164.424C562.905 163.6 563.954 163.188 565.178 163.188C566.401 163.188 567.444 163.6 568.306 164.424C569.182 165.235 569.62 166.207 569.62 167.34C569.62 168.486 569.182 169.471 568.306 170.295C567.444 171.106 566.401 171.511 565.178 171.511ZM584.09 187.85V205H575.862V175.335H583.703V180.569H584.051C584.708 178.844 585.809 177.479 587.354 176.475C588.899 175.458 590.772 174.949 592.974 174.949C595.034 174.949 596.83 175.4 598.362 176.301C599.894 177.202 601.085 178.49 601.935 180.164C602.785 181.825 603.209 183.807 603.209 186.112V205H594.982V187.58C594.995 185.764 594.531 184.348 593.592 183.331C592.652 182.301 591.358 181.786 589.71 181.786C588.602 181.786 587.624 182.024 586.774 182.501C585.937 182.977 585.281 183.672 584.804 184.586C584.341 185.488 584.103 186.576 584.09 187.85ZM623.213 205.579C620.161 205.579 617.535 204.961 615.333 203.725C613.144 202.476 611.458 200.713 610.273 198.434C609.089 196.142 608.496 193.432 608.496 190.303C608.496 187.251 609.089 184.573 610.273 182.269C611.458 179.964 613.125 178.168 615.275 176.88C617.438 175.593 619.975 174.949 622.884 174.949C624.841 174.949 626.663 175.265 628.35 175.896C630.049 176.514 631.53 177.447 632.792 178.696C634.067 179.945 635.058 181.516 635.766 183.408C636.474 185.288 636.828 187.49 636.828 190.013V192.273H611.779V187.174H629.084C629.084 185.99 628.826 184.94 628.311 184.026C627.796 183.112 627.082 182.398 626.168 181.882C625.266 181.355 624.217 181.091 623.02 181.091C621.771 181.091 620.663 181.38 619.698 181.96C618.745 182.526 617.998 183.292 617.457 184.258C616.917 185.211 616.64 186.273 616.627 187.445V192.292C616.627 193.76 616.897 195.028 617.438 196.097C617.992 197.165 618.771 197.989 619.775 198.569C620.779 199.148 621.97 199.438 623.348 199.438C624.262 199.438 625.099 199.309 625.859 199.052C626.618 198.794 627.268 198.408 627.809 197.893C628.35 197.378 628.762 196.747 629.045 196L636.654 196.502C636.268 198.331 635.476 199.927 634.279 201.292C633.094 202.644 631.562 203.7 629.683 204.459C627.816 205.206 625.659 205.579 623.213 205.579Z" fill="#29374C"/>
<defs>
<clipPath id="clip0_18_21">
<rect width="61.643" height="60.41" fill="white" transform="translate(95.7783 92.5028)"/>
</clipPath>
</defs>
</svg>
