<svg width="442" height="238" viewBox="0 0 442 238" fill="none" xmlns="http://www.w3.org/2000/svg">
<path d="M182.455 104.008C161.218 82.7705 161.218 47.9197 182.455 26.6826M198.246 88.2159C185.722 75.6914 185.722 54.9988 198.246 41.9298" stroke="#29374C" stroke-width="10.8908" stroke-linecap="round" stroke-linejoin="round"/>
<path d="M221.117 76.2359C227.132 76.2359 232.008 71.3599 232.008 65.3451C232.008 59.3302 227.132 54.4542 221.117 54.4542C215.102 54.4542 210.226 59.3302 210.226 65.3451C210.226 71.3599 215.102 76.2359 221.117 76.2359Z" stroke="#29374C" stroke-width="10.8908" stroke-linecap="round" stroke-linejoin="round"/>
<path d="M243.988 42.4743C256.512 54.9988 256.512 75.6914 243.988 88.7604M259.78 26.6826C281.017 47.9197 281.017 82.2259 259.78 103.463" stroke="#29374C" stroke-width="10.8908" stroke-linecap="round" stroke-linejoin="round"/>
<g clip-path="url(#clip0_1_21)">
<circle cx="221.456" cy="65" r="16" fill="#29374D"/>
<path fill-rule="evenodd" clip-rule="evenodd" d="M220.417 52.7888C218.922 52.8784 217.447 53.2657 215.954 53.9602C215.758 54.0516 215.033 54.4487 214.815 54.5847C213.305 55.526 211.906 56.9091 210.934 58.421C210.58 58.9709 210.121 59.8598 209.929 60.3663C209.794 60.7249 209.794 60.7253 209.84 60.8623C209.901 61.0414 210.027 61.1338 210.18 61.113C210.333 61.0921 211.137 60.6983 212.299 60.0751C212.506 59.9637 213.353 59.575 213.388 59.575C213.394 59.575 213.486 59.5357 213.591 59.4878C214.013 59.296 214.9 59.0094 215.468 58.8813C216.648 58.6154 217.584 58.6392 218.383 58.9556C219.35 59.3386 219.959 60.0761 220.526 61.5518C220.604 61.7565 220.695 61.9922 220.727 62.0756C220.759 62.1589 220.834 62.3567 220.892 62.515C221.627 64.5077 221.82 64.9671 222.058 65.2916C222.272 65.5816 222.417 65.6673 222.694 65.6673C223.074 65.6673 223.306 65.4525 223.572 64.8548C223.747 64.4613 223.799 64.1859 223.781 63.7543C223.766 63.3868 223.728 63.3046 223.373 62.8808C223.149 62.6124 223.042 62.3853 223.011 62.1129C222.957 61.6362 223.443 60.9749 224.116 60.6103C224.468 60.4191 224.745 60.3498 225.074 60.3704C225.515 60.3981 225.805 60.5613 226.282 61.0501C226.562 61.3371 226.906 61.6331 227.241 61.8756C227.362 61.9633 227.461 62.0452 227.461 62.0577C227.461 62.0702 227.424 62.0997 227.378 62.1232C226.856 62.39 226.516 62.6808 226.441 62.9242C226.375 63.1397 226.355 63.6264 226.397 64.0131C226.435 64.366 226.536 64.7193 226.88 65.6976C227.391 67.1501 227.468 68.4825 227.106 69.5924C226.535 71.3438 224.767 72.6493 222.345 73.107C221.006 73.3601 219.763 73.2591 218.124 72.7643C217.582 72.6005 216.654 72.2662 216.151 72.0535C215.772 71.8928 214.709 71.363 214.345 71.1526C214.136 71.0322 213.904 70.8993 213.829 70.8573C213.089 70.444 211.733 69.4279 210.686 68.5024C210.552 68.3843 210.354 68.2129 210.246 68.1216C210.137 68.0304 210.03 67.9384 210.008 67.9173C209.879 67.7959 209.759 67.7283 209.672 67.7283C209.546 67.7283 209.426 67.8446 209.426 67.9675C209.426 68.1806 209.57 68.6639 209.891 69.5318C210.031 69.9092 210.477 70.8011 210.771 71.2898C211.569 72.6191 212.681 73.8421 213.95 74.7869C215.18 75.7028 216.753 76.4647 218.11 76.8012C218.815 76.9763 218.965 77.0069 219.461 77.0779C221.789 77.4115 224.12 77.0979 226.224 76.1681C227.048 75.8042 227.69 75.4275 228.676 74.7294C228.824 74.6247 229.1 74.3943 229.405 74.122C229.546 73.995 229.695 73.8651 229.734 73.8332C229.936 73.6702 230.822 72.6539 231.136 72.2268C231.444 71.8069 231.742 71.3621 231.742 71.3219C231.742 71.3152 231.809 71.2019 231.891 71.0702C232.214 70.5505 232.608 69.6824 232.865 68.9251C233.098 68.2392 233.263 67.5655 233.386 66.7996C233.483 66.1989 233.483 66.1952 233.485 65.0156C233.487 63.8737 233.484 63.8145 233.402 63.2728C233.274 62.42 233.146 61.8793 232.885 61.0905C232.129 58.8056 230.573 56.6626 228.6 55.19C227.856 54.6345 227.269 54.2869 226.384 53.8771C224.522 53.0152 222.572 52.6595 220.417 52.7888ZM225.075 61.2628C224.989 61.2797 224.836 61.4465 224.796 61.566C224.727 61.7717 224.893 62.0114 225.131 62.0499C225.266 62.0718 225.47 61.9702 225.533 61.8494C225.637 61.647 225.561 61.4027 225.36 61.2998C225.25 61.2433 225.204 61.2374 225.075 61.2628Z" fill="#FFD542"/>
</g>
<path d="M38.7796 158.687H30.2227C30.0664 157.58 29.7473 156.597 29.2654 155.737C28.7835 154.865 28.1648 154.122 27.4094 153.51C26.654 152.898 25.7814 152.429 24.7916 152.104C23.8148 151.778 22.7533 151.615 21.6072 151.615C19.5363 151.615 17.7325 152.13 16.1956 153.159C14.6587 154.174 13.467 155.659 12.6205 157.613C11.7739 159.553 11.3506 161.911 11.3506 164.685C11.3506 167.537 11.7739 169.934 12.6205 171.874C13.4801 173.815 14.6783 175.28 16.2151 176.27C17.752 177.26 19.5298 177.755 21.5485 177.755C22.6817 177.755 23.7301 177.605 24.6939 177.305C25.6707 177.006 26.5368 176.57 27.2922 175.996C28.0476 175.41 28.6728 174.701 29.1677 173.867C29.6756 173.033 30.0273 172.083 30.2227 171.015L38.7796 171.054C38.5582 172.89 38.0046 174.662 37.119 176.368C36.2464 178.061 35.0677 179.578 33.5829 180.92C32.1112 182.248 30.3529 183.303 28.3081 184.085C26.2763 184.853 23.9776 185.237 21.4118 185.237C17.8432 185.237 14.6522 184.43 11.839 182.815C9.0388 181.2 6.82468 178.862 5.19666 175.801C3.58166 172.74 2.77416 169.035 2.77416 164.685C2.77416 160.322 3.59468 156.61 5.23573 153.549C6.87678 150.489 9.10392 148.157 11.9171 146.555C14.7304 144.94 17.8953 144.133 21.4118 144.133C23.7301 144.133 25.8791 144.458 27.8588 145.11C29.8515 145.761 31.6163 146.712 33.1531 147.962C34.69 149.199 35.9403 150.717 36.9041 152.514C37.8809 154.311 38.5061 156.369 38.7796 158.687ZM53.2462 185.257C51.3316 185.257 49.6255 184.925 48.1277 184.26C46.6299 183.583 45.4447 182.587 44.5721 181.271C43.7125 179.943 43.2827 178.289 43.2827 176.309C43.2827 174.642 43.5888 173.242 44.2009 172.109C44.813 170.976 45.6466 170.064 46.7015 169.374C47.7565 168.683 48.9547 168.162 50.2962 167.811C51.6507 167.459 53.0704 167.212 54.5551 167.068C56.3004 166.886 57.707 166.717 58.775 166.56C59.843 166.391 60.6179 166.144 61.0998 165.818C61.5817 165.492 61.8226 165.011 61.8226 164.372V164.255C61.8226 163.018 61.4319 162.061 60.6505 161.383C59.882 160.706 58.788 160.367 57.3684 160.367C55.8706 160.367 54.6789 160.7 53.7932 161.364C52.9076 162.015 52.3215 162.836 52.0349 163.825L44.3376 163.2C44.7284 161.377 45.4968 159.801 46.6429 158.472C47.7891 157.131 49.2673 156.102 51.0777 155.386C52.9011 154.656 55.011 154.292 57.4074 154.292C59.0745 154.292 60.67 154.487 62.1938 154.878C63.7307 155.268 65.0917 155.874 66.2769 156.695C67.4751 157.515 68.4194 158.57 69.1097 159.86C69.8 161.136 70.1451 162.666 70.1451 164.451V184.69H62.2524V180.529H62.018C61.5361 181.467 60.8914 182.294 60.0839 183.01C59.2764 183.713 58.3061 184.267 57.173 184.671C56.0399 185.061 54.731 185.257 53.2462 185.257ZM55.6296 179.513C56.8539 179.513 57.9349 179.272 58.8727 178.79C59.8104 178.295 60.5463 177.631 61.0803 176.797C61.6143 175.964 61.8812 175.02 61.8812 173.965V170.78C61.6208 170.95 61.2626 171.106 60.8067 171.249C60.3639 171.379 59.8625 171.503 59.3025 171.62C58.7424 171.725 58.1824 171.822 57.6223 171.913C57.0623 171.992 56.5543 172.063 56.0985 172.128C55.1217 172.272 54.2686 172.5 53.5392 172.812C52.8099 173.125 52.2433 173.548 51.8396 174.082C51.4358 174.603 51.234 175.254 51.234 176.036C51.234 177.169 51.6442 178.035 52.4647 178.634C53.2983 179.22 54.3533 179.513 55.6296 179.513ZM101.569 163.239L93.9501 163.708C93.8198 163.057 93.5398 162.471 93.11 161.95C92.6802 161.416 92.1137 160.993 91.4104 160.68C90.7201 160.354 89.893 160.192 88.9293 160.192C87.6399 160.192 86.5523 160.465 85.6667 161.012C84.781 161.546 84.3382 162.262 84.3382 163.161C84.3382 163.877 84.6248 164.483 85.1978 164.978C85.7709 165.473 86.7542 165.87 88.1478 166.17L93.5789 167.264C96.4963 167.863 98.6714 168.827 100.104 170.155C101.537 171.484 102.253 173.229 102.253 175.391C102.253 177.358 101.673 179.083 100.514 180.568C99.3682 182.053 97.7922 183.212 95.7865 184.045C93.7938 184.866 91.495 185.276 88.8902 185.276C84.9178 185.276 81.7529 184.449 79.3955 182.795C77.0512 181.128 75.6771 178.862 75.2734 175.996L83.4591 175.567C83.7066 176.778 84.3057 177.703 85.2564 178.341C86.2072 178.966 87.425 179.279 88.9097 179.279C90.3684 179.279 91.5406 178.999 92.4263 178.439C93.3249 177.865 93.7808 177.13 93.7938 176.231C93.7808 175.476 93.4617 174.857 92.8365 174.375C92.2114 173.88 91.2476 173.502 89.9451 173.242L84.7485 172.206C81.818 171.62 79.6365 170.604 78.2038 169.159C76.7842 167.713 76.0744 165.87 76.0744 163.63C76.0744 161.702 76.5953 160.042 77.6373 158.648C78.6922 157.255 80.1705 156.18 82.072 155.425C83.9866 154.669 86.2267 154.292 88.7925 154.292C92.5825 154.292 95.5651 155.093 97.7401 156.695C99.9282 158.297 101.205 160.478 101.569 163.239ZM116.051 185.257C114.136 185.257 112.43 184.925 110.932 184.26C109.434 183.583 108.249 182.587 107.376 181.271C106.517 179.943 106.087 178.289 106.087 176.309C106.087 174.642 106.393 173.242 107.005 172.109C107.617 170.976 108.451 170.064 109.506 169.374C110.561 168.683 111.759 168.162 113.101 167.811C114.455 167.459 115.875 167.212 117.359 167.068C119.105 166.886 120.511 166.717 121.579 166.56C122.647 166.391 123.422 166.144 123.904 165.818C124.386 165.492 124.627 165.011 124.627 164.372V164.255C124.627 163.018 124.236 162.061 123.455 161.383C122.686 160.706 121.592 160.367 120.173 160.367C118.675 160.367 117.483 160.7 116.598 161.364C115.712 162.015 115.126 162.836 114.839 163.825L107.142 163.2C107.533 161.377 108.301 159.801 109.447 158.472C110.593 157.131 112.072 156.102 113.882 155.386C115.705 154.656 117.815 154.292 120.212 154.292C121.879 154.292 123.474 154.487 124.998 154.878C126.535 155.268 127.896 155.874 129.081 156.695C130.279 157.515 131.224 158.57 131.914 159.86C132.604 161.136 132.949 162.666 132.949 164.451V184.69H125.057V180.529H124.822C124.34 181.467 123.696 182.294 122.888 183.01C122.081 183.713 121.11 184.267 119.977 184.671C118.844 185.061 117.535 185.257 116.051 185.257ZM118.434 179.513C119.658 179.513 120.739 179.272 121.677 178.79C122.615 178.295 123.351 177.631 123.885 176.797C124.419 175.964 124.686 175.02 124.686 173.965V170.78C124.425 170.95 124.067 171.106 123.611 171.249C123.168 171.379 122.667 171.503 122.107 171.62C121.547 171.725 120.987 171.822 120.427 171.913C119.867 171.992 119.359 172.063 118.903 172.128C117.926 172.272 117.073 172.5 116.344 172.812C115.614 173.125 115.048 173.548 114.644 174.082C114.24 174.603 114.038 175.254 114.038 176.036C114.038 177.169 114.449 178.035 115.269 178.634C116.103 179.22 117.158 179.513 118.434 179.513ZM163.197 185.179C160.917 185.179 158.853 184.592 157.004 183.42C155.167 182.235 153.708 180.496 152.627 178.204C151.559 175.899 151.025 173.073 151.025 169.725C151.025 166.287 151.579 163.428 152.686 161.149C153.793 158.857 155.265 157.144 157.101 156.011C158.951 154.865 160.976 154.292 163.177 154.292C164.857 154.292 166.257 154.578 167.377 155.151C168.51 155.711 169.422 156.415 170.112 157.261C170.816 158.095 171.35 158.915 171.714 159.723H171.968V144.68H180.271V184.69H172.066V179.884H171.714C171.324 180.718 170.77 181.545 170.054 182.365C169.35 183.173 168.432 183.844 167.299 184.378C166.179 184.912 164.812 185.179 163.197 185.179ZM165.834 178.556C167.175 178.556 168.309 178.191 169.233 177.462C170.171 176.719 170.887 175.684 171.382 174.355C171.89 173.027 172.144 171.471 172.144 169.686C172.144 167.902 171.897 166.352 171.402 165.037C170.907 163.721 170.191 162.705 169.253 161.989C168.315 161.273 167.175 160.914 165.834 160.914C164.466 160.914 163.314 161.286 162.376 162.028C161.438 162.77 160.728 163.799 160.247 165.115C159.765 166.43 159.524 167.954 159.524 169.686C159.524 171.432 159.765 172.975 160.247 174.316C160.741 175.645 161.451 176.687 162.376 177.442C163.314 178.185 164.466 178.556 165.834 178.556ZM200.789 185.276C197.703 185.276 195.046 184.651 192.818 183.401C190.604 182.137 188.898 180.353 187.7 178.048C186.502 175.73 185.903 172.988 185.903 169.823C185.903 166.736 186.502 164.027 187.7 161.696C188.898 159.365 190.585 157.548 192.76 156.245C194.948 154.943 197.514 154.292 200.457 154.292C202.437 154.292 204.28 154.611 205.986 155.249C207.705 155.874 209.203 156.818 210.479 158.082C211.769 159.345 212.772 160.934 213.488 162.849C214.204 164.75 214.562 166.977 214.562 169.53V171.816H189.224V166.658H206.728C206.728 165.46 206.468 164.398 205.947 163.474C205.426 162.549 204.703 161.826 203.778 161.305C202.867 160.771 201.805 160.504 200.594 160.504C199.331 160.504 198.21 160.797 197.234 161.383C196.27 161.956 195.514 162.731 194.967 163.708C194.42 164.672 194.14 165.746 194.127 166.932V171.835C194.127 173.32 194.401 174.603 194.948 175.684C195.508 176.765 196.296 177.598 197.312 178.185C198.328 178.771 199.532 179.064 200.926 179.064C201.851 179.064 202.697 178.933 203.466 178.673C204.234 178.412 204.892 178.022 205.439 177.501C205.986 176.98 206.403 176.342 206.689 175.586L214.387 176.094C213.996 177.944 213.195 179.559 211.984 180.939C210.785 182.307 209.235 183.375 207.334 184.143C205.445 184.899 203.264 185.276 200.789 185.276ZM269.65 164.685C269.65 169.048 268.823 172.76 267.169 175.821C265.528 178.881 263.288 181.219 260.448 182.834C257.622 184.436 254.444 185.237 250.915 185.237C247.359 185.237 244.168 184.43 241.342 182.815C238.515 181.2 236.282 178.862 234.641 175.801C233 172.74 232.179 169.035 232.179 164.685C232.179 160.322 233 156.61 234.641 153.549C236.282 150.489 238.515 148.157 241.342 146.555C244.168 144.94 247.359 144.133 250.915 144.133C254.444 144.133 257.622 144.94 260.448 146.555C263.288 148.157 265.528 150.489 267.169 153.549C268.823 156.61 269.65 160.322 269.65 164.685ZM261.073 164.685C261.073 161.859 260.65 159.475 259.804 157.535C258.97 155.594 257.791 154.122 256.267 153.119C254.744 152.117 252.959 151.615 250.915 151.615C248.87 151.615 247.085 152.117 245.562 153.119C244.038 154.122 242.853 155.594 242.006 157.535C241.172 159.475 240.756 161.859 240.756 164.685C240.756 167.511 241.172 169.895 242.006 171.835C242.853 173.776 244.038 175.248 245.562 176.25C247.085 177.253 248.87 177.755 250.915 177.755C252.959 177.755 254.744 177.253 256.267 176.25C257.791 175.248 258.97 173.776 259.804 171.835C260.65 169.895 261.073 167.511 261.073 164.685ZM275.76 184.69V154.682H283.828V159.918H284.141C284.688 158.056 285.606 156.649 286.896 155.698C288.185 154.734 289.67 154.253 291.35 154.253C291.767 154.253 292.216 154.279 292.698 154.331C293.18 154.383 293.603 154.454 293.968 154.546V161.93C293.577 161.813 293.036 161.709 292.346 161.618C291.656 161.527 291.024 161.481 290.451 161.481C289.227 161.481 288.133 161.748 287.169 162.282C286.218 162.803 285.463 163.532 284.903 164.47C284.356 165.408 284.082 166.489 284.082 167.713V184.69H275.76ZM305.968 185.257C304.053 185.257 302.347 184.925 300.849 184.26C299.352 183.583 298.166 182.587 297.294 181.271C296.434 179.943 296.004 178.289 296.004 176.309C296.004 174.642 296.31 173.242 296.923 172.109C297.535 170.976 298.368 170.064 299.423 169.374C300.478 168.683 301.676 168.162 303.018 167.811C304.372 167.459 305.792 167.212 307.277 167.068C309.022 166.886 310.429 166.717 311.497 166.56C312.565 166.391 313.34 166.144 313.821 165.818C314.303 165.492 314.544 165.011 314.544 164.372V164.255C314.544 163.018 314.154 162.061 313.372 161.383C312.604 160.706 311.51 160.367 310.09 160.367C308.592 160.367 307.4 160.7 306.515 161.364C305.629 162.015 305.043 162.836 304.757 163.825L297.059 163.2C297.45 161.377 298.218 159.801 299.365 158.472C300.511 157.131 301.989 156.102 303.799 155.386C305.623 154.656 307.733 154.292 310.129 154.292C311.796 154.292 313.392 154.487 314.915 154.878C316.452 155.268 317.813 155.874 318.999 156.695C320.197 157.515 321.141 158.57 321.831 159.86C322.522 161.136 322.867 162.666 322.867 164.451V184.69H314.974V180.529H314.74C314.258 181.467 313.613 182.294 312.806 183.01C311.998 183.713 311.028 184.267 309.895 184.671C308.762 185.061 307.453 185.257 305.968 185.257ZM308.351 179.513C309.576 179.513 310.657 179.272 311.594 178.79C312.532 178.295 313.268 177.631 313.802 176.797C314.336 175.964 314.603 175.02 314.603 173.965V170.78C314.342 170.95 313.984 171.106 313.528 171.249C313.086 171.379 312.584 171.503 312.024 171.62C311.464 171.725 310.904 171.822 310.344 171.913C309.784 171.992 309.276 172.063 308.82 172.128C307.843 172.272 306.99 172.5 306.261 172.812C305.532 173.125 304.965 173.548 304.561 174.082C304.157 174.603 303.956 175.254 303.956 176.036C303.956 177.169 304.366 178.035 305.186 178.634C306.02 179.22 307.075 179.513 308.351 179.513ZM342.882 185.276C339.808 185.276 337.164 184.625 334.95 183.323C332.749 182.007 331.056 180.184 329.871 177.852C328.698 175.521 328.112 172.838 328.112 169.803C328.112 166.73 328.705 164.034 329.89 161.715C331.088 159.384 332.788 157.567 334.989 156.265C337.19 154.949 339.808 154.292 342.843 154.292C345.46 154.292 347.753 154.767 349.719 155.718C351.686 156.669 353.242 158.004 354.389 159.723C355.535 161.442 356.166 163.461 356.284 165.779H348.43C348.209 164.281 347.622 163.076 346.672 162.165C345.734 161.24 344.503 160.778 342.979 160.778C341.69 160.778 340.563 161.129 339.6 161.833C338.649 162.523 337.906 163.532 337.372 164.861C336.838 166.189 336.571 167.798 336.571 169.686C336.571 171.601 336.832 173.229 337.353 174.57C337.887 175.912 338.636 176.934 339.6 177.638C340.563 178.341 341.69 178.693 342.979 178.693C343.93 178.693 344.783 178.497 345.539 178.106C346.307 177.716 346.939 177.149 347.434 176.407C347.942 175.651 348.274 174.746 348.43 173.691H356.284C356.153 175.983 355.528 178.002 354.408 179.747C353.301 181.48 351.771 182.834 349.817 183.811C347.863 184.788 345.552 185.276 342.882 185.276ZM361.612 184.69V154.682H369.935V184.69H361.612ZM365.793 150.814C364.556 150.814 363.494 150.404 362.608 149.583C361.736 148.75 361.3 147.754 361.3 146.594C361.3 145.448 361.736 144.465 362.608 143.644C363.494 142.811 364.556 142.394 365.793 142.394C367.03 142.394 368.085 142.811 368.958 143.644C369.843 144.465 370.286 145.448 370.286 146.594C370.286 147.754 369.843 148.75 368.958 149.583C368.085 150.404 367.03 150.814 365.793 150.814ZM390.16 185.276C387.125 185.276 384.501 184.632 382.286 183.342C380.085 182.04 378.386 180.229 377.187 177.911C375.989 175.58 375.39 172.877 375.39 169.803C375.39 166.704 375.989 163.995 377.187 161.676C378.386 159.345 380.085 157.535 382.286 156.245C384.501 154.943 387.125 154.292 390.16 154.292C393.194 154.292 395.812 154.943 398.013 156.245C400.227 157.535 401.933 159.345 403.132 161.676C404.33 163.995 404.929 166.704 404.929 169.803C404.929 172.877 404.33 175.58 403.132 177.911C401.933 180.229 400.227 182.04 398.013 183.342C395.812 184.632 393.194 185.276 390.16 185.276ZM390.199 178.829C391.579 178.829 392.732 178.439 393.657 177.657C394.581 176.863 395.278 175.782 395.747 174.414C396.229 173.047 396.47 171.49 396.47 169.745C396.47 168 396.229 166.443 395.747 165.076C395.278 163.708 394.581 162.627 393.657 161.833C392.732 161.038 391.579 160.641 390.199 160.641C388.805 160.641 387.633 161.038 386.682 161.833C385.744 162.627 385.035 163.708 384.553 165.076C384.084 166.443 383.849 168 383.849 169.745C383.849 171.49 384.084 173.047 384.553 174.414C385.035 175.782 385.744 176.863 386.682 177.657C387.633 178.439 388.805 178.829 390.199 178.829ZM387.17 150.814L391.312 141.925H399.009L393.051 150.814H387.17ZM418.663 167.342V184.69H410.341V154.682H418.272V159.977H418.624C419.288 158.231 420.402 156.851 421.965 155.835C423.528 154.806 425.423 154.292 427.65 154.292C429.734 154.292 431.55 154.748 433.1 155.659C434.65 156.571 435.855 157.873 436.715 159.566C437.574 161.247 438.004 163.252 438.004 165.584V184.69H429.681V167.068C429.695 165.232 429.226 163.799 428.275 162.77C427.324 161.728 426.015 161.208 424.348 161.208C423.228 161.208 422.238 161.448 421.379 161.93C420.532 162.412 419.868 163.116 419.386 164.04C418.917 164.952 418.676 166.053 418.663 167.342Z" fill="black"/>
<path d="M135.244 231V210.424H143.362C144.916 210.424 146.242 210.702 147.34 211.258C148.445 211.807 149.286 212.588 149.862 213.599C150.445 214.604 150.736 215.786 150.736 217.146C150.736 218.512 150.441 219.687 149.852 220.672C149.262 221.65 148.409 222.4 147.29 222.922C146.178 223.445 144.832 223.706 143.251 223.706H137.816V220.21H142.548C143.378 220.21 144.068 220.096 144.618 219.868C145.167 219.64 145.575 219.299 145.843 218.843C146.118 218.388 146.255 217.822 146.255 217.146C146.255 216.462 146.118 215.886 145.843 215.417C145.575 214.949 145.163 214.594 144.607 214.352C144.058 214.105 143.365 213.981 142.528 213.981H139.594V231H135.244ZM146.356 221.636L151.469 231H146.667L141.664 221.636H146.356ZM158.13 231.291C157.146 231.291 156.268 231.121 155.498 230.779C154.728 230.431 154.118 229.918 153.67 229.242C153.228 228.559 153.007 227.708 153.007 226.69C153.007 225.833 153.164 225.113 153.479 224.53C153.794 223.947 154.222 223.478 154.765 223.123C155.307 222.768 155.923 222.5 156.613 222.32C157.31 222.139 158.04 222.011 158.804 221.938C159.701 221.844 160.424 221.757 160.974 221.677C161.523 221.59 161.921 221.462 162.169 221.295C162.417 221.127 162.541 220.88 162.541 220.551V220.491C162.541 219.855 162.34 219.362 161.938 219.014C161.543 218.666 160.98 218.492 160.25 218.492C159.48 218.492 158.867 218.663 158.412 219.004C157.956 219.339 157.655 219.761 157.508 220.27L153.549 219.949C153.75 219.011 154.145 218.2 154.735 217.517C155.324 216.827 156.084 216.298 157.015 215.93C157.953 215.555 159.038 215.367 160.27 215.367C161.128 215.367 161.948 215.468 162.732 215.669C163.522 215.87 164.222 216.181 164.832 216.603C165.448 217.025 165.933 217.567 166.288 218.231C166.643 218.887 166.821 219.674 166.821 220.592V231H162.762V228.86H162.641C162.394 229.342 162.062 229.768 161.647 230.136C161.232 230.498 160.733 230.782 160.15 230.99C159.567 231.191 158.894 231.291 158.13 231.291ZM159.356 228.338C159.986 228.338 160.542 228.214 161.024 227.966C161.506 227.711 161.885 227.37 162.159 226.941C162.434 226.512 162.571 226.027 162.571 225.484V223.847C162.437 223.934 162.253 224.014 162.019 224.088C161.791 224.155 161.533 224.218 161.245 224.279C160.957 224.332 160.669 224.383 160.381 224.429C160.093 224.47 159.832 224.506 159.597 224.54C159.095 224.614 158.656 224.731 158.281 224.892C157.906 225.052 157.615 225.27 157.407 225.545C157.199 225.813 157.096 226.147 157.096 226.549C157.096 227.132 157.307 227.577 157.729 227.886C158.157 228.187 158.7 228.338 159.356 228.338ZM175.828 231.251C174.656 231.251 173.594 230.95 172.643 230.347C171.699 229.737 170.948 228.843 170.393 227.664C169.843 226.479 169.569 225.026 169.569 223.304C169.569 221.536 169.853 220.066 170.423 218.894C170.992 217.715 171.749 216.834 172.693 216.251C173.644 215.662 174.686 215.367 175.818 215.367C176.682 215.367 177.402 215.515 177.978 215.809C178.561 216.097 179.029 216.459 179.384 216.894C179.746 217.323 180.021 217.745 180.208 218.16H180.339V210.424H184.609V231H180.389V228.528H180.208C180.007 228.957 179.723 229.382 179.354 229.804C178.993 230.22 178.52 230.565 177.938 230.839C177.362 231.114 176.658 231.251 175.828 231.251ZM177.184 227.845C177.874 227.845 178.457 227.658 178.932 227.283C179.415 226.901 179.783 226.368 180.037 225.685C180.299 225.002 180.429 224.202 180.429 223.284C180.429 222.366 180.302 221.569 180.047 220.893C179.793 220.216 179.425 219.694 178.942 219.326C178.46 218.957 177.874 218.773 177.184 218.773C176.481 218.773 175.888 218.964 175.406 219.346C174.924 219.728 174.559 220.257 174.311 220.933C174.063 221.61 173.939 222.393 173.939 223.284C173.939 224.182 174.063 224.975 174.311 225.665C174.565 226.348 174.93 226.884 175.406 227.273C175.888 227.654 176.481 227.845 177.184 227.845ZM188.128 231V215.568H192.408V231H188.128ZM190.278 213.579C189.641 213.579 189.095 213.368 188.64 212.946C188.191 212.517 187.967 212.005 187.967 211.409C187.967 210.819 188.191 210.314 188.64 209.892C189.095 209.463 189.641 209.249 190.278 209.249C190.914 209.249 191.456 209.463 191.905 209.892C192.361 210.314 192.588 210.819 192.588 211.409C192.588 212.005 192.361 212.517 191.905 212.946C191.456 213.368 190.914 213.579 190.278 213.579ZM202.808 231.301C201.248 231.301 199.898 230.97 198.76 230.307C197.628 229.637 196.754 228.706 196.137 227.514C195.521 226.315 195.213 224.925 195.213 223.344C195.213 221.75 195.521 220.357 196.137 219.165C196.754 217.966 197.628 217.035 198.76 216.372C199.898 215.702 201.248 215.367 202.808 215.367C204.369 215.367 205.715 215.702 206.847 216.372C207.986 217.035 208.863 217.966 209.479 219.165C210.096 220.357 210.404 221.75 210.404 223.344C210.404 224.925 210.096 226.315 209.479 227.514C208.863 228.706 207.986 229.637 206.847 230.307C205.715 230.97 204.369 231.301 202.808 231.301ZM202.829 227.986C203.538 227.986 204.131 227.785 204.607 227.383C205.082 226.975 205.441 226.419 205.682 225.715C205.93 225.012 206.054 224.212 206.054 223.314C206.054 222.417 205.93 221.616 205.682 220.913C205.441 220.21 205.082 219.654 204.607 219.245C204.131 218.837 203.538 218.632 202.829 218.632C202.112 218.632 201.509 218.837 201.02 219.245C200.538 219.654 200.173 220.21 199.925 220.913C199.684 221.616 199.563 222.417 199.563 223.314C199.563 224.212 199.684 225.012 199.925 225.715C200.173 226.419 200.538 226.975 201.02 227.383C201.509 227.785 202.112 227.986 202.829 227.986ZM238.723 220.712C238.723 222.956 238.298 224.865 237.447 226.439C236.603 228.013 235.451 229.215 233.991 230.046C232.538 230.869 230.903 231.281 229.088 231.281C227.26 231.281 225.619 230.866 224.165 230.036C222.712 229.205 221.563 228.003 220.719 226.429C219.875 224.855 219.453 222.949 219.453 220.712C219.453 218.468 219.875 216.559 220.719 214.985C221.563 213.411 222.712 212.213 224.165 211.389C225.619 210.558 227.26 210.143 229.088 210.143C230.903 210.143 232.538 210.558 233.991 211.389C235.451 212.213 236.603 213.411 237.447 214.985C238.298 216.559 238.723 218.468 238.723 220.712ZM234.313 220.712C234.313 219.259 234.095 218.033 233.66 217.035C233.231 216.037 232.625 215.28 231.841 214.764C231.057 214.249 230.14 213.991 229.088 213.991C228.037 213.991 227.119 214.249 226.335 214.764C225.552 215.28 224.942 216.037 224.507 217.035C224.078 218.033 223.864 219.259 223.864 220.712C223.864 222.166 224.078 223.391 224.507 224.389C224.942 225.387 225.552 226.144 226.335 226.66C227.119 227.176 228.037 227.433 229.088 227.433C230.14 227.433 231.057 227.176 231.841 226.66C232.625 226.144 233.231 225.387 233.66 224.389C234.095 223.391 234.313 222.166 234.313 220.712ZM246.145 222.078V231H241.865V215.568H245.944V218.291H246.125C246.467 217.393 247.039 216.683 247.843 216.161C248.647 215.632 249.621 215.367 250.767 215.367C251.838 215.367 252.773 215.602 253.57 216.07C254.367 216.539 254.986 217.209 255.428 218.08C255.87 218.944 256.091 219.975 256.091 221.174V231H251.812V221.938C251.818 220.993 251.577 220.257 251.088 219.728C250.599 219.192 249.926 218.924 249.069 218.924C248.493 218.924 247.984 219.048 247.542 219.296C247.106 219.543 246.765 219.905 246.517 220.381C246.276 220.849 246.152 221.415 246.145 222.078ZM263.745 210.424V231H259.465V210.424H263.745ZM267.173 231V215.568H271.453V231H267.173ZM269.323 213.579C268.687 213.579 268.141 213.368 267.685 212.946C267.237 212.517 267.012 212.005 267.012 211.409C267.012 210.819 267.237 210.314 267.685 209.892C268.141 209.463 268.687 209.249 269.323 209.249C269.959 209.249 270.502 209.463 270.951 209.892C271.406 210.314 271.634 210.819 271.634 211.409C271.634 212.005 271.406 212.517 270.951 212.946C270.502 213.368 269.959 213.579 269.323 213.579ZM279.161 222.078V231H274.881V215.568H278.96V218.291H279.141C279.483 217.393 280.056 216.683 280.859 216.161C281.663 215.632 282.638 215.367 283.783 215.367C284.855 215.367 285.789 215.602 286.586 216.07C287.383 216.539 288.003 217.209 288.445 218.08C288.887 218.944 289.108 219.975 289.108 221.174V231H284.828V221.938C284.834 220.993 284.593 220.257 284.104 219.728C283.615 219.192 282.942 218.924 282.085 218.924C281.509 218.924 281 219.048 280.558 219.296C280.123 219.543 279.781 219.905 279.533 220.381C279.292 220.849 279.168 221.415 279.161 222.078ZM299.514 231.301C297.926 231.301 296.56 230.98 295.415 230.337C294.276 229.687 293.399 228.77 292.782 227.584C292.166 226.392 291.858 224.982 291.858 223.354C291.858 221.767 292.166 220.374 292.782 219.175C293.399 217.976 294.266 217.042 295.384 216.372C296.51 215.702 297.829 215.367 299.343 215.367C300.361 215.367 301.309 215.531 302.186 215.86C303.07 216.181 303.84 216.667 304.497 217.316C305.16 217.966 305.676 218.783 306.044 219.768C306.412 220.746 306.597 221.891 306.597 223.204V224.379H293.566V221.727H302.568C302.568 221.111 302.434 220.565 302.166 220.089C301.898 219.614 301.526 219.242 301.051 218.974C300.582 218.699 300.036 218.562 299.413 218.562C298.763 218.562 298.187 218.713 297.685 219.014C297.189 219.309 296.801 219.707 296.52 220.21C296.238 220.705 296.094 221.258 296.088 221.867V224.389C296.088 225.153 296.228 225.813 296.51 226.368C296.798 226.924 297.203 227.353 297.725 227.654C298.248 227.956 298.867 228.107 299.584 228.107C300.06 228.107 300.495 228.04 300.89 227.906C301.285 227.772 301.623 227.571 301.905 227.303C302.186 227.035 302.4 226.707 302.548 226.318L306.506 226.579C306.305 227.531 305.893 228.361 305.27 229.071C304.654 229.774 303.857 230.324 302.879 230.719C301.908 231.107 300.786 231.301 299.514 231.301Z" fill="#29374C"/>
<defs>
<clipPath id="clip0_1_21">
<rect width="32" height="32" fill="white" transform="translate(205.456 49)"/>
</clipPath>
</defs>
</svg>
