<svg width="132" height="131" viewBox="0 0 132 131" fill="none" xmlns="http://www.w3.org/2000/svg">
<path d="M27.4547 104.008C6.21755 82.7705 6.21755 47.9197 27.4547 26.6826M43.2464 88.2159C30.722 75.6914 30.722 54.9988 43.2464 41.9298" stroke="#29374C" stroke-width="10.8908" stroke-linecap="round" stroke-linejoin="round"/>
<path d="M66.1172 76.2359C72.1321 76.2359 77.0081 71.3599 77.0081 65.3451C77.0081 59.3302 72.1321 54.4542 66.1172 54.4542C60.1024 54.4542 55.2264 59.3302 55.2264 65.3451C55.2264 71.3599 60.1024 76.2359 66.1172 76.2359Z" stroke="#29374C" stroke-width="10.8908" stroke-linecap="round" stroke-linejoin="round"/>
<path d="M88.988 42.4743C101.512 54.9988 101.512 75.6914 88.988 88.7604M104.78 26.6826C126.017 47.9197 126.017 82.2259 104.78 103.463" stroke="#29374C" stroke-width="10.8908" stroke-linecap="round" stroke-linejoin="round"/>
<g clip-path="url(#clip0_1_10)">
<circle cx="66.4556" cy="65" r="16" fill="#29374D"/>
<path fill-rule="evenodd" clip-rule="evenodd" d="M65.4172 52.7888C63.9223 52.8784 62.4468 53.2657 60.9539 53.9602C60.7575 54.0516 60.0334 54.4487 59.8153 54.5847C58.3054 55.526 56.906 56.9091 55.9338 58.421C55.5802 58.9709 55.1213 59.8598 54.9294 60.3663C54.7935 60.7249 54.7935 60.7253 54.8402 60.8623C54.9013 61.0414 55.0265 61.1338 55.1797 61.113C55.3332 61.0921 56.1372 60.6983 57.2986 60.0751C57.5061 59.9637 58.353 59.575 58.388 59.575C58.3942 59.575 58.4855 59.5357 58.5911 59.4878C59.0126 59.296 59.8998 59.0094 60.4681 58.8813C61.6477 58.6154 62.5838 58.6392 63.3829 58.9556C64.3504 59.3386 64.9591 60.0761 65.5258 61.5518C65.6044 61.7565 65.6951 61.9922 65.7272 62.0756C65.7594 62.1589 65.8335 62.3567 65.8919 62.515C66.6265 64.5077 66.8195 64.9671 67.0584 65.2916C67.2719 65.5816 67.4168 65.6673 67.6941 65.6673C68.0738 65.6673 68.3058 65.4525 68.5718 64.8548C68.747 64.4613 68.7995 64.1859 68.7815 63.7543C68.7661 63.3868 68.7277 63.3046 68.3732 62.8808C68.1487 62.6124 68.0415 62.3853 68.0109 62.1129C67.9572 61.6362 68.4434 60.9749 69.1155 60.6103C69.468 60.4191 69.7449 60.3498 70.0735 60.3704C70.5149 60.3981 70.8051 60.5613 71.2822 61.0501C71.5623 61.3371 71.9061 61.6331 72.2411 61.8756C72.3622 61.9633 72.4613 62.0452 72.4613 62.0577C72.4613 62.0702 72.4237 62.0997 72.3778 62.1232C71.856 62.39 71.5159 62.6808 71.4409 62.9242C71.3745 63.1397 71.3547 63.6264 71.3967 64.0131C71.435 64.366 71.5364 64.7193 71.8802 65.6976C72.3907 67.1501 72.4679 68.4825 72.106 69.5924C71.535 71.3438 69.7666 72.6493 67.3452 73.107C66.0063 73.3601 64.7625 73.2591 63.1241 72.7643C62.5815 72.6005 61.6537 72.2662 61.1512 72.0535C60.7718 71.8928 59.7092 71.363 59.3447 71.1526C59.1359 71.0322 58.9036 70.8993 58.8285 70.8573C58.0889 70.444 56.7328 69.4279 55.686 68.5024C55.5524 68.3843 55.3543 68.2129 55.2457 68.1216C55.1372 68.0304 55.0301 67.9384 55.0078 67.9173C54.8793 67.7959 54.7593 67.7283 54.6722 67.7283C54.5457 67.7283 54.4259 67.8446 54.4259 67.9675C54.4259 68.1806 54.5695 68.6639 54.8908 69.5318C55.0306 69.9092 55.4768 70.8011 55.7705 71.2898C56.5694 72.6191 57.6813 73.8421 58.9499 74.7869C60.1797 75.7028 61.7531 76.4647 63.1096 76.8012C63.8153 76.9763 63.9649 77.0069 64.4607 77.0779C66.7888 77.4115 69.1199 77.0979 71.224 76.1681C72.0475 75.8042 72.6895 75.4275 73.6758 74.7294C73.8236 74.6247 74.1001 74.3943 74.4045 74.122C74.5464 73.995 74.6948 73.8651 74.7342 73.8332C74.9356 73.6702 75.8224 72.6539 76.136 72.2268C76.4443 71.8069 76.7424 71.3621 76.7424 71.3219C76.7424 71.3152 76.8093 71.2019 76.8912 71.0702C77.2141 70.5505 77.6082 69.6824 77.8651 68.9251C78.0978 68.2392 78.263 67.5655 78.3864 66.7996C78.4831 66.1989 78.4833 66.1952 78.4849 65.0156C78.4865 63.8737 78.4837 63.8145 78.4022 63.2728C78.274 62.42 78.1458 61.8793 77.8849 61.0905C77.1292 58.8056 75.573 56.6626 73.5999 55.19C72.8556 54.6345 72.2689 54.2869 71.3837 53.8771C69.5217 53.0152 67.5719 52.6595 65.4172 52.7888ZM70.0747 61.2628C69.9891 61.2797 69.8355 61.4465 69.7957 61.566C69.7271 61.7717 69.8931 62.0114 70.1307 62.0498C70.2663 62.0718 70.4701 61.9702 70.5326 61.8494C70.6375 61.647 70.5607 61.4027 70.3599 61.2998C70.2497 61.2433 70.2041 61.2374 70.0747 61.2628Z" fill="#FFD542"/>
</g>
<defs>
<clipPath id="clip0_1_10">
<rect width="32" height="32" fill="white" transform="translate(50.4556 49)"/>
</clipPath>
</defs>
</svg>
